<?xml version="1.0" encoding="UTF-8" standalone="no"?>
<!-- Created with Inkscape (http://www.inkscape.org/) -->

<svg
   xmlns:dc="http://purl.org/dc/elements/1.1/"
   xmlns:cc="http://creativecommons.org/ns#"
   xmlns:rdf="http://www.w3.org/1999/02/22-rdf-syntax-ns#"
   xmlns:svg="http://www.w3.org/2000/svg"
   xmlns="http://www.w3.org/2000/svg"
   xmlns:sodipodi="http://sodipodi.sourceforge.net/DTD/sodipodi-0.dtd"
   xmlns:inkscape="http://www.inkscape.org/namespaces/inkscape"
   width="245.49997"
   height="66.000443"
   viewBox="0 0 64.955199 17.462617"
   version="1.1"
   id="svg9852"
   inkscape:version="0.92.0 r15299"
   sodipodi:docname="spirent.svg">
  <defs
     id="defs9846" />
  <sodipodi:namedview
     id="base"
     pagecolor="#ffffff"
     bordercolor="#666666"
     borderopacity="1.0"
     inkscape:pageopacity="0.0"
     inkscape:pageshadow="2"
     inkscape:zoom="3.6837783"
     inkscape:cx="121.75001"
     inkscape:cy="32.000278"
     inkscape:document-units="mm"
     inkscape:current-layer="layer1"
     showgrid="false"
     fit-margin-top="0"
     fit-margin-left="0"
     fit-margin-right="0"
     fit-margin-bottom="0"
     units="px"
     inkscape:window-width="1280"
     inkscape:window-height="744"
     inkscape:window-x="-4"
     inkscape:window-y="-4"
     inkscape:window-maximized="1" />
  <metadata
     id="metadata9849">
    <rdf:RDF>
      <cc:Work
         rdf:about="">
        <dc:format>image/svg+xml</dc:format>
        <dc:type
           rdf:resource="http://purl.org/dc/dcmitype/StillImage" />
        <dc:title></dc:title>
      </cc:Work>
    </rdf:RDF>
  </metadata>
  <g
     inkscape:label="Layer 1"
     inkscape:groupmode="layer"
     id="layer1"
     transform="translate(-24.483406,-336.38508)">
    <g
       id="g10019"
       transform="translate(0.26458513,-0.26457447)">
      <path
         id="path9854"
         d="m 42.051741,348.47657 c -1.217083,0 -2.2225,-0.58208 -2.619375,-1.50812 -0.105833,-0.26458 0,-0.58208 0.264583,-0.71438 0.264584,-0.10583 0.582084,0 0.687917,0.26459 0.185208,0.44979 0.767292,0.89958 1.719792,0.89958 1.190625,0 1.825625,-0.76729 1.825625,-1.50812 0,-0.97896 -0.582084,-1.21709 -1.957917,-1.56105 -1.137708,-0.29104 -2.566458,-0.66145 -2.566458,-2.35479 0,-0.60854 0.264583,-1.19062 0.714375,-1.64041 0.370416,-0.34396 0.978958,-0.7673 2.010833,-0.7673 1.137708,0 2.06375,0.52917 2.460625,1.4023 0.132292,0.26458 0.02646,0.58208 -0.238125,0.68791 -0.264583,0.13229 -0.582083,0.0265 -0.714375,-0.23812 -0.185208,-0.37042 -0.661458,-0.79375 -1.534583,-0.79375 -1.217084,0 -1.666875,0.84666 -1.666875,1.34937 0,0.79375 0.529166,1.00542 1.799166,1.32292 1.137709,0.29104 2.725209,0.68792 2.725209,2.54 0,0.635 -0.291042,1.27 -0.767292,1.74625 -0.396875,0.42333 -1.058333,0.87312 -2.143125,0.87312 z"
         inkscape:connector-curvature="0"
         style="fill:#345d9d;stroke-width:0.26458332" />
      <path
         id="path9856"
         d="m 54.672366,344.05803 c 0,2.51354 -1.799167,4.39209 -4.153958,4.39209 -1.27,0 -2.407709,-0.52917 -3.122084,-1.45521 v 5.3975 c 0,0.29104 -0.238125,0.52916 -0.529166,0.52916 -0.291042,0 -0.529167,-0.23812 -0.529167,-0.52916 V 340.1422 c 0,-0.29104 0.238125,-0.50271 0.529167,-0.50271 0.291041,0 0.529166,0.23813 0.529166,0.50271 v 0.92604 c 0.767292,-0.87312 1.878542,-1.42875 3.122084,-1.42875 2.354791,0 4.153958,1.905 4.153958,4.41854 z m -1.031875,0 c 0,-1.93146 -1.349375,-3.36021 -3.122083,-3.36021 -1.799167,0 -3.122084,1.45521 -3.122084,3.36021 0,1.905 1.322917,3.36021 3.122084,3.36021 1.74625,0 3.122083,-1.45521 3.122083,-3.36021 z"
         inkscape:connector-curvature="0"
         style="fill:#345d9d;stroke-width:0.26458332" />
      <path
         id="path9858"
         d="m 56.683199,337.70803 c 0.3175,0 0.582084,0.26459 0.582084,0.55563 0,0.3175 -0.238125,0.55562 -0.582084,0.55562 -0.3175,0 -0.582083,-0.23812 -0.582083,-0.55562 0.02646,-0.29104 0.291042,-0.55563 0.582083,-0.55563 z m 0,10.76854 c -0.291041,0 -0.529166,-0.23812 -0.529166,-0.52916 v -7.80521 c 0,-0.29104 0.238125,-0.50271 0.529166,-0.50271 0.291042,0 0.529167,0.23813 0.529167,0.50271 v 7.77875 c 0,0.3175 -0.211667,0.55562 -0.529167,0.55562 z"
         inkscape:connector-curvature="0"
         style="fill:#345d9d;stroke-width:0.26458332" />
      <path
         id="path9860"
         d="m 62.821533,340.1422 c 0,0.29104 -0.238125,0.52917 -0.529167,0.52917 -1.455208,0 -2.513542,1.19062 -2.513542,2.7252 v 0.0794 0.0529 4.39208 c 0,0.29104 -0.238125,0.52917 -0.529166,0.52917 -0.291042,0 -0.502709,-0.23813 -0.502709,-0.52917 v -7.77875 c 0,-0.29104 0.238125,-0.50271 0.502709,-0.50271 0.291041,0 0.529166,0.23813 0.529166,0.50271 v 0.52917 c 0.635,-0.66146 1.534584,-1.05834 2.513542,-1.05834 0.291042,0.0265 0.529167,0.23813 0.529167,0.52917 z"
         inkscape:connector-curvature="0"
         style="fill:#345d9d;stroke-width:0.26458332" />
      <path
         id="path9862"
         d="m 67.319449,348.47657 c -2.407708,0 -4.153958,-1.905 -4.153958,-4.39208 0,-1.19062 0.396875,-2.30187 1.11125,-3.09562 0.767291,-0.84667 1.825625,-1.32292 2.963333,-1.32292 2.354792,0 4.021667,1.85208 4.021667,4.39208 0,0.29104 -0.238125,0.52917 -0.529167,0.52917 h -6.50875 c 0.238125,1.66687 1.481667,2.83104 3.095625,2.83104 1.11125,0 2.06375,-0.52917 2.592917,-1.48167 0.15875,-0.23812 0.47625,-0.3175 0.714375,-0.15875 0.238125,0.15875 0.3175,0.47625 0.185208,0.71438 -0.740833,1.24354 -2.037292,1.98437 -3.4925,1.98437 z m -3.095625,-4.9477 h 5.953125 c -0.185208,-1.7198 -1.349375,-2.8575 -2.936875,-2.8575 -1.613958,0 -2.804583,1.16416 -3.01625,2.8575 z"
         inkscape:connector-curvature="0"
         style="fill:#345d9d;stroke-width:0.26458332" />
      <path
         id="path9864"
         d="m 79.834241,343.39657 v 4.52438 c 0,0.29104 -0.238125,0.52917 -0.502709,0.52917 -0.291041,0 -0.529166,-0.23813 -0.529166,-0.52917 v -4.52438 c 0,-1.5875 -1.031875,-2.7252 -2.434167,-2.7252 -1.481667,0 -2.592917,1.21708 -2.592917,2.7252 v 0.0794 0.0529 4.39208 c 0,0.29104 -0.238125,0.52917 -0.529166,0.52917 -0.291042,0 -0.502709,-0.23813 -0.502709,-0.52917 v -7.77875 c 0,-0.29104 0.238125,-0.50271 0.502709,-0.50271 0.291041,0 0.529166,0.23813 0.529166,0.50271 v 0.58208 c 0.661459,-0.68791 1.5875,-1.11125 2.592917,-1.11125 1.005417,0 1.931458,0.39688 2.54,1.13771 0.608542,0.68792 0.926042,1.64042 0.926042,2.64583 z"
         inkscape:connector-curvature="0"
         style="fill:#345d9d;stroke-width:0.26458332" />
      <path
         id="path9866"
         d="m 85.840282,346.99491 c 0.238125,0.18521 0.238125,0.50271 0.05292,0.74083 -0.423333,0.47625 -1.005417,0.74083 -1.613958,0.74083 -1.190625,0 -2.143125,-0.9525 -2.143125,-2.11666 v -5.68854 h -0.47625 c -0.291042,0 -0.502709,-0.23813 -0.502709,-0.52917 0,-0.29104 0.238125,-0.50271 0.502709,-0.50271 h 0.47625 v -1.64042 c 0,-0.29104 0.238125,-0.52916 0.529166,-0.52916 0.291042,0 0.529167,0.23812 0.529167,0.52916 v 1.66688 h 1.852083 c 0.291042,0 0.529167,0.23812 0.529167,0.50271 0,0.29104 -0.238125,0.52916 -0.529167,0.52916 h -1.852083 v 5.68855 c 0,0.58208 0.502708,1.05833 1.084792,1.05833 0.3175,0 0.608541,-0.13229 0.79375,-0.37042 0.238125,-0.23812 0.555625,-0.29104 0.767291,-0.0794 z"
         inkscape:connector-curvature="0"
         style="fill:#345d9d;stroke-width:0.26458332" />
      <path
         id="path9868"
         d="m 31.12445,349.21741 c -2.69875,0 -4.92125,-1.85209 -5.503334,-4.36563 h 1.402292 l -2.196042,-3.41312 -0.02646,0.0794 c -0.211667,0.60854 -0.3175,1.24354 -0.3175,1.93146 v 0.15875 0.34396 c 0,0.10583 0,0.18521 0.02646,0.29104 v 0.0529 c 0.3175,3.30729 3.148542,5.95312 6.614584,5.95312 2.460625,0 4.630208,-1.34937 5.767916,-3.33375 l -0.635,-1.00541 c -0.873125,1.95791 -2.8575,3.30729 -5.132916,3.30729 z"
         inkscape:connector-curvature="0"
         style="fill:#00b2e3;stroke-width:0.26458332" />
      <path
         id="path9870"
         d="m 37.765491,343.58178 c 0,-0.18521 0,-0.39687 -0.02646,-0.58208 v -0.0265 c -0.3175,-3.41312 -3.148542,-6.05896 -6.614583,-6.05896 -2.513542,0 -4.683125,1.40229 -5.820834,3.41313 l 0.635,1.00541 c 0.873125,-2.01083 2.8575,-3.41312 5.185834,-3.41312 2.69875,0 4.974166,1.93146 5.529791,4.47146 h -1.455208 l 2.196042,3.41312 c 0.211666,-0.55562 0.317499,-1.16416 0.370416,-1.79916 0,-0.10584 0,-0.26459 0,-0.42334 z"
         inkscape:connector-curvature="0"
         style="fill:#00a19b;stroke-width:0.26458332" />
      <path
         inkscape:connector-curvature="0"
         d="m 54.116741,351.67803 c 0,0.60854 -0.502708,1.11125 -1.11125,1.11125 h -0.846667 v 0.82021 c 0,0.0794 -0.05292,0.15875 -0.15875,0.15875 -0.105833,0 -0.15875,-0.0529 -0.15875,-0.15875 v -2.93687 c 0,-0.0794 0.05292,-0.15875 0.15875,-0.15875 h 0.978959 c 0.635,0.0265 1.137708,0.52916 1.137708,1.16416 z m -0.291042,0 c 0,-0.44979 -0.370416,-0.84666 -0.846666,-0.84666 h -0.820209 v 1.66687 h 0.820209 c 0.47625,0.0265 0.846666,-0.37042 0.846666,-0.82021 z"
         id="path9872"
         style="fill:#00b2e3;stroke-width:0.26458332" />
      <path
         inkscape:connector-curvature="0"
         d="m 55.651324,351.46637 c 0,0.0794 -0.05292,0.15875 -0.15875,0.15875 -0.396875,0 -0.714375,0.3175 -0.714375,0.76729 v 0.0265 0.0264 1.24355 c 0,0.0794 -0.05292,0.15875 -0.15875,0.15875 -0.07938,0 -0.132291,-0.0529 -0.132291,-0.15875 v -2.2225 c 0,-0.0794 0.05292,-0.1323 0.132291,-0.1323 0.07937,0 0.15875,0.0529 0.15875,0.1323 v 0.15875 c 0.185209,-0.18521 0.423334,-0.29105 0.714375,-0.29105 0.105834,-0.0265 0.15875,0.0529 0.15875,0.1323 z"
         id="path9874"
         style="fill:#00b2e3;stroke-width:0.26458332" />
      <path
         inkscape:connector-curvature="0"
         d="m 56.921324,353.76824 c -0.687916,0 -1.243541,-0.55562 -1.243541,-1.24354 0,-0.68792 0.555625,-1.24354 1.243541,-1.24354 0.687917,0 1.243542,0.55562 1.243542,1.24354 0,0.71437 -0.555625,1.24354 -1.243542,1.24354 z m 0,-2.16958 c -0.529166,0 -0.9525,0.42333 -0.9525,0.9525 0,0.52916 0.423334,0.9525 0.9525,0.9525 0.529167,0 0.9525,-0.42334 0.9525,-0.9525 0,-0.52917 -0.423333,-0.9525 -0.9525,-0.9525 z"
         id="path9876"
         style="fill:#00b2e3;stroke-width:0.26458332" />
      <path
         inkscape:connector-curvature="0"
         d="m 62.001324,352.36595 v 1.27 c 0,0.0794 -0.05292,0.15875 -0.15875,0.15875 -0.07937,0 -0.15875,-0.0529 -0.15875,-0.15875 v -1.27 c 0,-0.44979 -0.264583,-0.76729 -0.608541,-0.76729 -0.396875,0 -0.687917,0.3175 -0.687917,0.76729 v 0.0265 0.0265 1.24354 c 0,0.0794 -0.05292,0.15875 -0.15875,0.15875 -0.07937,0 -0.132292,-0.0529 -0.132292,-0.15875 v -1.27 c 0,-0.44979 -0.264583,-0.76729 -0.608541,-0.76729 -0.396875,0 -0.687917,0.3175 -0.687917,0.76729 v 0.0265 0.0264 1.24355 c 0,0.0794 -0.07937,0.15875 -0.15875,0.15875 -0.07937,0 -0.15875,-0.0529 -0.15875,-0.15875 v -2.2225 c 0,-0.0794 0.05292,-0.1323 0.15875,-0.1323 0.07938,0 0.15875,0.0529 0.15875,0.1323 v 0.13229 c 0.185208,-0.18521 0.423333,-0.29104 0.687917,-0.29104 0.343958,0 0.608541,0.1852 0.767291,0.47625 0.02646,-0.0529 0.07937,-0.10584 0.105834,-0.15875 0.185208,-0.21167 0.423333,-0.3175 0.714375,-0.3175 0.555625,0 0.926041,0.44979 0.926041,1.05833 z"
         id="path9878"
         style="fill:#00b2e3;stroke-width:0.26458332" />
      <path
         inkscape:connector-curvature="0"
         d="m 62.609866,350.77845 c 0.07938,0 0.15875,0.0794 0.15875,0.15875 0,0.0794 -0.07937,0.15875 -0.15875,0.15875 -0.07937,0 -0.15875,-0.0794 -0.15875,-0.15875 0,-0.10583 0.07937,-0.15875 0.15875,-0.15875 z m 0,2.98979 c -0.07937,0 -0.15875,-0.0529 -0.15875,-0.15875 v -2.14312 c 0,-0.0794 0.07937,-0.1323 0.15875,-0.1323 0.07938,0 0.15875,0.0529 0.15875,0.1323 v 2.16958 c 0,0.0794 -0.07937,0.13229 -0.15875,0.13229 z"
         id="path9880"
         style="fill:#00b2e3;stroke-width:0.26458332" />
      <path
         inkscape:connector-curvature="0"
         d="m 63.932783,353.76824 c -0.343959,0 -0.608542,-0.15875 -0.740834,-0.42333 -0.02646,-0.0794 0,-0.15875 0.07937,-0.18521 0.07937,-0.0265 0.15875,0 0.185209,0.0794 0.05292,0.1323 0.211666,0.26459 0.47625,0.26459 0.343958,0 0.502708,-0.21167 0.502708,-0.42334 0,-0.26458 -0.15875,-0.34395 -0.555625,-0.42333 -0.3175,-0.0794 -0.714375,-0.18521 -0.714375,-0.66146 0,-0.15875 0.07937,-0.34396 0.185208,-0.44979 0.105834,-0.10583 0.264584,-0.21167 0.555625,-0.21167 0.3175,0 0.582083,0.15875 0.687917,0.39688 0.02646,0.0794 0,0.15875 -0.07937,0.18521 -0.07937,0.0265 -0.15875,0 -0.185209,-0.0794 -0.05292,-0.10583 -0.185208,-0.21166 -0.423333,-0.21166 -0.343958,0 -0.449791,0.23812 -0.449791,0.37041 0,0.21167 0.15875,0.29104 0.502708,0.37042 0.3175,0.0794 0.767291,0.18521 0.767291,0.71437 0,0.18521 -0.07937,0.34396 -0.211666,0.47625 -0.07937,0.10584 -0.264584,0.21167 -0.582083,0.21167 z"
         id="path9882"
         style="fill:#00b2e3;stroke-width:0.26458332" />
      <path
         inkscape:connector-curvature="0"
         d="m 66.287574,353.76824 c -0.661458,0 -1.164167,-0.52917 -1.164167,-1.24354 0,-0.34396 0.105834,-0.635 0.3175,-0.87313 0.211667,-0.23812 0.502709,-0.37041 0.820209,-0.37041 0.661458,0 1.11125,0.52916 1.11125,1.24354 0,0.0794 -0.05292,0.15875 -0.15875,0.15875 h -1.825625 c 0.05292,0.44979 0.423333,0.79375 0.873125,0.79375 0.3175,0 0.582083,-0.15875 0.740833,-0.42333 0.05292,-0.0794 0.132292,-0.0794 0.211667,-0.0529 0.07937,0.0529 0.07937,0.13229 0.05292,0.21167 -0.211666,0.37041 -0.555625,0.55562 -0.978958,0.55562 z m -0.820208,-1.37583 h 1.666875 c -0.05292,-0.47625 -0.370417,-0.79375 -0.820209,-0.79375 -0.47625,0 -0.79375,0.3175 -0.846666,0.79375 z"
         id="path9884"
         style="fill:#00b2e3;stroke-width:0.26458332" />
      <path
         inkscape:connector-curvature="0"
         d="m 67.901532,353.4772 c 0.105834,0 0.185209,0.0794 0.185209,0.18521 0,0.10583 -0.07937,0.18521 -0.185209,0.18521 -0.105833,0 -0.185208,-0.0794 -0.185208,-0.18521 -0.02646,-0.10584 0.07937,-0.18521 0.185208,-0.18521 z"
         id="path9886"
         style="fill:#00b2e3;stroke-width:0.26458332" />
      <path
         inkscape:connector-curvature="0"
         d="m 72.478824,353.76824 c -0.02646,0 -0.05292,0.0265 -0.05292,0.0265 -0.05292,0 -0.105833,-0.0265 -0.132291,-0.0794 l -0.343959,-0.76729 h -1.5875 l -0.343958,0.76729 c -0.02646,0.0794 -0.105833,0.10584 -0.185208,0.0794 -0.07938,-0.0265 -0.105834,-0.10583 -0.07938,-0.18521 l 1.296458,-2.91042 c 0.02646,-0.0529 0.07937,-0.0794 0.132292,-0.0794 0.05292,0 0.105833,0.0265 0.132291,0.0794 l 1.296459,2.91042 c -0.02646,0.0265 -0.05292,0.13229 -0.132292,0.15875 z m -0.661458,-1.13771 -0.687917,-1.56104 -0.687917,1.56104 z"
         id="path9888"
         style="fill:#00b2e3;stroke-width:0.26458332" />
      <path
         inkscape:connector-curvature="0"
         d="m 73.722366,353.76824 c -0.343959,0 -0.608542,-0.15875 -0.740834,-0.42333 -0.02646,-0.0794 0,-0.15875 0.07937,-0.18521 0.07937,-0.0265 0.15875,0 0.185209,0.0794 0.05292,0.1323 0.211666,0.26459 0.47625,0.26459 0.343958,0 0.502708,-0.21167 0.502708,-0.42334 0,-0.26458 -0.15875,-0.34395 -0.555625,-0.42333 -0.3175,-0.0794 -0.714375,-0.18521 -0.714375,-0.66146 0,-0.15875 0.07937,-0.34396 0.185208,-0.44979 0.105834,-0.10583 0.264584,-0.21167 0.555625,-0.21167 0.3175,0 0.582084,0.15875 0.687917,0.39688 0.02646,0.0794 0,0.15875 -0.07937,0.18521 -0.07937,0.0265 -0.15875,0 -0.185208,-0.0794 -0.05292,-0.10583 -0.185209,-0.21166 -0.423334,-0.21166 -0.343958,0 -0.449791,0.23812 -0.449791,0.37041 0,0.21167 0.15875,0.29104 0.502708,0.37042 0.3175,0.0794 0.767292,0.18521 0.767292,0.71437 0,0.18521 -0.07937,0.34396 -0.211667,0.47625 -0.105833,0.10584 -0.291042,0.21167 -0.582083,0.21167 z"
         id="path9890"
         style="fill:#00b2e3;stroke-width:0.26458332" />
      <path
         inkscape:connector-curvature="0"
         d="m 75.653824,353.76824 c -0.343958,0 -0.608542,-0.15875 -0.740833,-0.42333 -0.02646,-0.0794 0,-0.15875 0.07937,-0.18521 0.07937,-0.0265 0.15875,0 0.185208,0.0794 0.05292,0.1323 0.211667,0.26459 0.47625,0.26459 0.343958,0 0.502708,-0.21167 0.502708,-0.42334 0,-0.26458 -0.15875,-0.34395 -0.555625,-0.42333 -0.3175,-0.0794 -0.714375,-0.18521 -0.714375,-0.66146 0,-0.15875 0.07937,-0.34396 0.185209,-0.44979 0.105833,-0.10583 0.264583,-0.21167 0.555625,-0.21167 0.3175,0 0.582083,0.15875 0.687916,0.39688 0.02646,0.0794 0,0.15875 -0.07937,0.18521 -0.07937,0.0265 -0.15875,0 -0.185208,-0.0794 -0.05292,-0.10583 -0.185208,-0.21166 -0.423333,-0.21166 -0.343959,0 -0.449792,0.23812 -0.449792,0.37041 0,0.21167 0.15875,0.29104 0.502708,0.37042 0.3175,0.0794 0.767292,0.18521 0.767292,0.71437 0,0.18521 -0.07937,0.34396 -0.211667,0.47625 -0.105833,0.10584 -0.291041,0.21167 -0.582083,0.21167 z"
         id="path9892"
         style="fill:#00b2e3;stroke-width:0.26458332" />
      <path
         inkscape:connector-curvature="0"
         d="m 78.828824,351.46637 v 2.16958 c 0,0.0794 -0.05292,0.15875 -0.15875,0.15875 -0.105833,0 -0.15875,-0.0529 -0.15875,-0.15875 v -0.15875 c -0.185208,0.18521 -0.449792,0.3175 -0.714375,0.3175 -0.291042,0 -0.529167,-0.10583 -0.714375,-0.3175 -0.15875,-0.18521 -0.264583,-0.44979 -0.264583,-0.74083 v -1.27 c 0,-0.0794 0.05292,-0.1323 0.15875,-0.1323 0.105833,0 0.15875,0.0529 0.15875,0.1323 v 1.27 c 0,0.44979 0.291041,0.76729 0.687916,0.76729 0.396875,0 0.714375,-0.34396 0.714375,-0.76729 v -0.0265 c 0,0 0,0 0,-0.0265 v -1.21708 c 0,-0.0794 0.05292,-0.1323 0.15875,-0.1323 0.105834,0 0.132292,0.0529 0.132292,0.1323 z"
         id="path9894"
         style="fill:#00b2e3;stroke-width:0.26458332" />
      <path
         inkscape:connector-curvature="0"
         d="m 80.389866,351.46637 c 0,0.0794 -0.05292,0.15875 -0.15875,0.15875 -0.396875,0 -0.714375,0.3175 -0.714375,0.76729 v 0.0265 0.0264 1.24355 c 0,0.0794 -0.05292,0.15875 -0.15875,0.15875 -0.07937,0 -0.132292,-0.0529 -0.132292,-0.15875 v -2.2225 c 0,-0.0794 0.05292,-0.1323 0.132292,-0.1323 0.07937,0 0.15875,0.0529 0.15875,0.1323 v 0.15875 c 0.185208,-0.18521 0.423333,-0.29105 0.714375,-0.29105 0.07937,-0.0265 0.15875,0.0529 0.15875,0.1323 z"
         id="path9896"
         style="fill:#00b2e3;stroke-width:0.26458332" />
      <path
         inkscape:connector-curvature="0"
         d="m 81.633407,353.76824 c -0.661458,0 -1.164166,-0.52917 -1.164166,-1.24354 0,-0.34396 0.105833,-0.635 0.3175,-0.87313 0.211666,-0.23812 0.502708,-0.37041 0.820208,-0.37041 0.661458,0 1.11125,0.52916 1.11125,1.24354 0,0.0794 -0.05292,0.15875 -0.15875,0.15875 h -1.825625 c 0.05292,0.44979 0.423333,0.79375 0.873125,0.79375 0.3175,0 0.582083,-0.15875 0.740833,-0.42333 0.05292,-0.0794 0.132292,-0.0794 0.211667,-0.0529 0.07937,0.0529 0.07937,0.13229 0.05292,0.21167 -0.211667,0.37041 -0.555625,0.55562 -0.978959,0.55562 z m -0.873125,-1.37583 h 1.666875 c -0.05292,-0.47625 -0.370416,-0.79375 -0.820208,-0.79375 -0.449792,0 -0.767292,0.3175 -0.846667,0.79375 z"
         id="path9898"
         style="fill:#00b2e3;stroke-width:0.26458332" />
      <path
         inkscape:connector-curvature="0"
         d="m 85.416949,350.69907 v 2.91042 c 0,0.0794 -0.05292,0.15875 -0.132292,0.15875 -0.07937,0 -0.15875,-0.0529 -0.15875,-0.15875 v -0.26458 c -0.211666,0.26458 -0.529166,0.39687 -0.873125,0.39687 -0.661458,0 -1.164166,-0.52916 -1.164166,-1.24354 0,-0.71437 0.502708,-1.24354 1.164166,-1.24354 0.343959,0 0.661459,0.15875 0.873125,0.39687 v -0.97895 c 0,-0.0794 0.05292,-0.15875 0.15875,-0.15875 0.07937,0.0265 0.132292,0.10583 0.132292,0.1852 z m -0.291042,1.85209 c 0,-0.52917 -0.370416,-0.9525 -0.873125,-0.9525 -0.502708,0 -0.873125,0.39687 -0.873125,0.9525 0,0.52916 0.370417,0.9525 0.873125,0.9525 0.529167,0 0.873125,-0.42334 0.873125,-0.9525 z"
         id="path9900"
         style="fill:#00b2e3;stroke-width:0.26458332" />
      <path
         inkscape:connector-curvature="0"
         d="m 85.893199,353.4772 c 0.105833,0 0.185208,0.0794 0.185208,0.18521 0,0.10583 -0.07937,0.18521 -0.185208,0.18521 -0.105833,0 -0.185208,-0.0794 -0.185208,-0.18521 -0.02646,-0.10584 0.07937,-0.18521 0.185208,-0.18521 z"
         id="path9902"
         style="fill:#00b2e3;stroke-width:0.26458332" />
      <path
         id="path9906"
         d="m 87.507157,339.8247 c 0,0.0265 -0.02646,0.0529 -0.05292,0.0529 h -0.396875 v 1.1377 c 0,0.0265 -0.02646,0.0529 -0.05292,0.0529 -0.02646,0 -0.05292,-0.0265 -0.05292,-0.0529 v -1.1377 h -0.396875 c -0.02646,0 -0.05292,-0.0265 -0.05292,-0.0529 0,-0.0265 0.02646,-0.0529 0.05292,-0.0529 h 0.899584 c 0.02646,-0.0265 0.05292,0 0.05292,0.0529 z"
         inkscape:connector-curvature="0"
         style="fill:#345d9d;stroke-width:0.26458332" />
      <path
         id="path9908"
         d="m 88.777157,341.06824 c -0.02646,0 -0.05292,-0.0265 -0.05292,-0.0529 v -1.00541 l -0.423334,0.635 c 0,0.0265 -0.02646,0.0265 -0.05292,0.0265 -0.02646,0 -0.02646,0 -0.05292,-0.0265 l -0.423333,-0.635 v 1.00541 c 0,0.0265 -0.02646,0.0529 -0.05292,0.0529 -0.02646,0 -0.05292,-0.0265 -0.05292,-0.0529 v -1.19062 c 0,-0.0265 0.02646,-0.0529 0.05292,-0.0529 0.02646,0 0.05292,0 0.05292,0.0265 l 0.502708,0.74083 0.502708,-0.74083 c 0.02646,-0.0265 0.05292,-0.0265 0.07937,-0.0265 0.02646,0 0.05292,0.0265 0.05292,0.0529 v 1.19062 c -0.07937,0.0265 -0.105833,0.0529 -0.132292,0.0529 z"
         inkscape:connector-curvature="0"
         style="fill:#345d9d;stroke-width:0.26458332" />
    </g>
  </g>
</svg>
